<?xml version="1.0" standalone="no"?>
<!DOCTYPE svg PUBLIC "-//W3C//DTD SVG 20010904//EN"
 "http://www.w3.org/TR/2001/REC-SVG-20010904/DTD/svg10.dtd">
<svg version="1.0" xmlns="http://www.w3.org/2000/svg" style="background-color:white"
 width="1100.000000pt" height="1000.000000pt" viewBox="0 0 1100.000000 1000.000000"
 preserveAspectRatio="xMidYMid meet">
<metadata>
Created by potrace 1.16, written by Peter Selinger 2001-2019
</metadata>
<g transform="translate(0.000000,1000.000000) scale(0.100000,-0.100000)"
fill="#000000" stroke="none">
<path d="M0 5000 l0 -5000 5500 0 5500 0 0 5000 0 5000 -5500 0 -5500 0 0
-5000z m5693 4924 c123 -15 187 -30 352 -79 50 -15 110 -33 135 -40 220 -61
313 -98 570 -227 336 -168 452 -238 600 -365 123 -105 378 -373 446 -469 166
-233 316 -525 386 -749 16 -55 17 -73 7 -205 -6 -80 -16 -170 -24 -200 -14
-60 -42 -207 -75 -400 -43 -254 -119 -572 -183 -770 -27 -83 -41 -141 -36
-150 4 -8 27 -59 49 -112 l42 -97 -20 -63 c-21 -64 -66 -224 -76 -267 -9 -41
13 -231 35 -306 34 -113 73 -178 130 -213 61 -38 181 -95 234 -111 22 -7 49
-16 60 -21 11 -4 58 -20 105 -34 77 -23 93 -32 167 -98 44 -40 107 -101 138
-136 32 -34 62 -62 67 -62 11 0 194 135 203 150 3 5 1 19 -5 29 -22 42 -50
246 -50 366 0 131 15 220 56 333 21 57 32 76 52 83 32 12 77 3 122 -25 143
-91 519 -221 695 -242 33 -3 105 -21 160 -39 55 -18 115 -37 134 -42 31 -8 37
-15 60 -78 15 -39 32 -80 39 -92 13 -24 15 -12 -39 -241 -12 -51 -19 -95 -16
-98 3 -3 14 -1 25 5 33 17 49 13 121 -28 115 -67 190 -130 344 -283 l147 -148
0 -48 c0 -80 -38 -281 -76 -402 -64 -205 -51 -183 -105 -177 l-46 6 -12 -52
c-6 -29 -18 -65 -26 -80 -14 -27 -14 -28 105 -148 l120 -120 82 -167 c105
-211 107 -233 33 -298 -27 -24 -58 -46 -68 -50 -15 -5 -16 -13 -10 -62 4 -31
7 -70 7 -87 0 -16 -1 -159 -2 -317 l-2 -288 -38 0 c-180 0 -474 -194 -619
-408 -57 -83 -128 -238 -126 -273 2 -28 -156 -171 -277 -251 -436 -288 -919
-489 -1435 -598 -322 -68 -372 -72 -745 -67 -202 3 -418 11 -520 21 -488 46
-884 98 -1183 157 -54 11 -103 16 -110 12 -40 -23 -163 -122 -227 -181 l-75
-70 -65 62 c-72 68 -158 141 -207 174 l-31 22 -109 -20 c-59 -11 -144 -27
-188 -35 -44 -8 -116 -19 -160 -24 -44 -6 -127 -17 -185 -25 -433 -61 -762
-87 -1165 -93 -378 -6 -419 -2 -745 66 -523 110 -977 299 -1432 596 -152 100
-284 221 -286 262 -1 28 -32 108 -66 173 -113 213 -368 429 -569 481 -39 11
-83 19 -98 19 l-27 0 -4 318 c-2 174 0 342 4 372 5 38 3 57 -5 61 -7 4 -35 24
-64 45 -76 57 -78 83 -18 218 101 226 107 235 319 463 l29 32 -18 41 c-10 22
-21 57 -24 78 -6 36 -7 37 -51 37 -43 0 -46 2 -67 45 -12 25 -29 74 -37 110
-25 108 -65 352 -67 406 -2 59 13 84 96 158 30 26 55 54 55 60 0 31 198 198
324 274 78 47 83 48 131 28 19 -8 35 -12 35 -7 0 4 -16 76 -35 161 -27 120
-33 160 -25 184 5 17 17 58 27 91 13 44 25 63 43 72 40 18 198 65 275 79 192
38 325 74 450 122 102 39 221 95 265 125 56 37 110 46 145 23 26 -17 35 -39
12 -30 -7 2 -48 -12 -90 -31 -227 -105 -635 -235 -737 -235 l-56 0 -42 -79
-41 -79 40 -173 c32 -141 64 -258 96 -345 4 -11 -209 24 -267 45 -29 10 -39 7
-89 -19 -81 -43 -216 -147 -283 -218 -71 -74 -70 -63 -23 -334 37 -222 55
-290 81 -319 23 -25 48 -24 112 6 30 14 57 25 61 25 4 0 14 -19 21 -42 7 -24
16 -56 21 -72 5 -16 9 -46 9 -66 0 -33 -4 -39 -27 -45 -70 -17 -204 -137 -279
-249 -18 -28 -62 -115 -98 -194 -80 -179 -79 -190 39 -273 l30 -21 -3 -432 -3
-431 48 -24 c87 -41 240 -149 323 -227 66 -63 88 -91 121 -160 22 -45 45 -110
51 -144 l12 -62 54 6 c61 7 135 42 187 88 73 63 168 230 181 315 l6 44 77 -7
c42 -3 121 -15 176 -25 55 -10 123 -19 152 -19 119 0 266 -42 440 -125 103
-49 121 -62 205 -148 117 -119 154 -180 175 -287 19 -93 10 -178 -24 -247 -30
-62 -91 -75 -403 -82 l-255 -6 55 -17 c114 -35 473 -130 528 -139 234 -39 841
-54 1202 -30 461 31 1057 107 1390 177 l65 13 50 -33 c28 -18 96 -75 152 -126
l103 -92 87 82 c49 45 115 102 149 126 l61 43 149 -28 c355 -69 850 -130 1314
-162 247 -17 740 -14 964 5 226 20 267 28 546 104 l214 59 -154 7 c-170 7
-259 18 -363 43 -64 15 -70 19 -90 57 -29 57 -36 210 -12 292 21 71 52 118
152 224 135 144 178 175 302 214 225 71 441 111 647 120 l110 4 27 -82 c15
-45 34 -91 42 -102 12 -16 12 -12 -1 21 -26 64 -16 184 22 266 37 77 123 173
193 214 57 33 64 49 96 205 36 178 38 181 215 361 l160 163 34 -33 c29 -28 36
-44 42 -89 16 -127 -46 -298 -166 -456 -48 -64 -72 -86 -122 -113 -34 -18 -75
-45 -91 -60 -49 -48 -100 -134 -130 -223 -40 -114 -48 -278 -20 -387 11 -40
16 -73 12 -73 -12 0 -170 120 -202 154 l-30 31 19 -34 c61 -110 191 -202 287
-205 l50 -1 16 70 c20 82 64 175 112 235 63 78 214 190 377 281 l43 24 0 405
c1 223 -2 416 -5 430 -4 22 3 31 57 71 95 70 95 79 9 267 -39 84 -89 177 -111
207 -66 87 -161 174 -223 203 -53 25 -57 29 -57 62 -1 34 31 165 42 176 3 4
31 -6 63 -20 102 -47 120 -35 154 100 29 119 70 371 70 437 0 59 0 59 -62 121
-72 72 -188 160 -269 205 -49 27 -60 30 -85 21 -16 -7 -78 -20 -139 -31 -60
-11 -117 -22 -126 -25 -14 -4 -12 9 11 73 15 43 47 162 71 266 l43 187 -39 80
-39 80 -55 0 c-109 0 -614 162 -749 241 -18 10 -42 19 -52 19 -85 0 -120 -320
-57 -515 15 -44 40 -102 57 -129 l31 -49 -43 -45 c-58 -62 -50 -55 -190 -164
-68 -53 -130 -104 -137 -112 -8 -9 -17 -16 -22 -16 -4 0 -24 28 -45 62 -42 71
-105 140 -181 199 -39 31 -84 51 -188 84 -149 49 -303 123 -396 191 -110 81
-214 257 -226 383 -3 31 -10 65 -16 76 -6 11 -11 56 -13 100 -2 70 4 101 46
249 l49 168 -23 47 c-13 25 -31 69 -41 96 -10 28 -22 55 -26 60 -4 6 12 74 37
150 61 189 135 510 184 796 22 130 49 277 60 325 11 49 25 153 31 232 13 165
11 177 -58 351 -114 292 -320 630 -482 791 -200 199 -326 284 -711 479 -266
135 -344 164 -741 280 -344 100 -597 100 -943 0 -376 -109 -501 -156 -741
-278 -382 -196 -486 -265 -676 -448 -222 -215 -432 -567 -559 -940 l-28 -82
13 -153 c8 -84 23 -192 34 -239 11 -48 34 -169 51 -270 61 -369 123 -642 196
-864 l36 -113 -25 -63 c-14 -35 -36 -86 -47 -113 l-22 -49 46 -161 c36 -127
46 -176 45 -231 0 -39 0 -74 1 -80 1 -5 2 -12 0 -15 -1 -3 -10 -45 -20 -94
-23 -107 -80 -230 -143 -307 -81 -99 -257 -199 -477 -270 -151 -49 -184 -68
-277 -158 -56 -54 -75 -80 -83 -113 -6 -24 -20 -54 -31 -67 l-20 -24 -32 30
c-18 16 -79 66 -137 110 -58 44 -134 108 -170 141 l-65 61 32 59 c73 134 98
248 91 410 -6 131 7 104 20 -44 11 -119 3 -247 -23 -381 -9 -45 -15 -92 -13
-104 2 -14 37 -49 98 -95 l94 -72 29 20 c15 11 39 38 53 59 13 21 45 58 71 81
25 24 51 48 57 53 48 45 102 72 235 115 151 50 252 95 348 156 41 26 59 46 81
91 51 102 65 174 66 328 1 136 0 143 -37 259 -21 65 -39 133 -39 150 -1 17 19
77 43 134 l43 103 -23 72 c-13 40 -31 97 -41 127 -18 57 -45 157 -79 295 -22
89 -49 228 -81 415 -33 193 -49 278 -69 370 -11 47 -25 148 -31 226 l-13 141
37 109 c82 242 302 635 457 814 117 136 355 368 449 437 187 138 654 375 892
454 284 93 528 158 638 170 58 6 107 13 109 15 10 10 193 3 304 -12z m-1334
-767 c-309 -207 -528 -418 -694 -667 -46 -69 -94 -135 -107 -146 -37 -34 -106
-76 -117 -72 -6 1 22 44 62 94 39 50 101 133 137 185 86 124 354 398 471 481
80 57 311 187 333 188 5 0 -34 -28 -85 -63z m231 -374 c-110 -99 -190 -183
-298 -318 -197 -245 -320 -459 -415 -725 -53 -147 -134 -379 -143 -409 -3 -8
-6 -12 -8 -10 -9 10 49 332 85 469 51 196 169 414 324 600 131 156 474 461
519 460 6 0 -23 -31 -64 -67z m1750 -406 c-37 -149 -156 -355 -241 -416 l-33
-24 24 39 c13 21 54 87 91 147 82 132 126 233 150 352 10 49 20 92 21 95 1 3
3 -21 5 -53 3 -37 -3 -88 -17 -140z m505 -174 c79 -236 227 -493 419 -728 l41
-50 -42 33 c-102 80 -235 257 -318 422 -93 186 -156 383 -154 482 l1 53 9 -54
c5 -30 25 -101 44 -158z m-3700 -343 c19 -174 51 -376 96 -590 17 -80 52 -251
79 -380 27 -130 52 -245 55 -255 6 -18 5 -18 -5 -2 -16 25 -85 238 -115 358
-70 276 -136 736 -134 937 2 144 2 143 24 -68z m307 -114 c-7 -364 24 -646
114 -1039 28 -121 35 -165 28 -189 -5 -17 -14 -33 -21 -35 -39 -13 -138 467
-164 797 -17 211 -7 500 21 618 12 50 23 92 24 92 2 0 1 -110 -2 -244z m3664
-303 c-26 -125 -57 -203 -99 -247 l-38 -40 70 -140 c96 -194 175 -405 159
-422 -3 -2 -24 39 -47 93 -73 170 -141 305 -196 389 l-53 82 54 53 c53 52 115
156 128 214 29 127 47 142 22 18z m-2568 -899 c189 -34 434 -138 544 -231 27
-24 46 -43 42 -43 -4 0 -81 32 -172 71 -250 107 -531 179 -756 195 -53 4 -93
11 -89 15 22 22 297 17 431 -7z m2255 20 c85 -8 105 -24 30 -24 -27 0 -93 -7
-148 -15 -235 -33 -432 -89 -669 -191 -82 -35 -151 -62 -153 -60 -7 7 81 72
162 119 163 94 381 159 575 170 114 7 129 7 203 1z m-3393 -404 c1 -97 61
-289 140 -445 l40 -79 -54 53 c-66 65 -101 138 -127 264 -20 97 -27 284 -9
257 5 -8 10 -31 10 -50z m900 30 c271 -33 520 -96 710 -180 242 -107 231 -98
203 -185 -11 -35 -19 -66 -16 -68 2 -3 45 9 96 26 127 41 255 43 372 4 91 -30
120 -34 112 -13 -45 116 -38 133 70 184 181 83 251 112 353 141 244 70 615
119 803 106 l97 -7 0 -82 c0 -137 -28 -266 -124 -566 -17 -55 -30 -78 -47 -87
-67 -34 -360 -112 -559 -149 -95 -17 -317 -32 -378 -25 -37 4 -47 22 -113 206
-22 60 -48 118 -57 129 -9 10 -44 31 -77 46 -156 72 -310 78 -469 20 -49 -18
-101 -45 -116 -59 -18 -17 -42 -66 -70 -146 -59 -165 -73 -191 -109 -198 -56
-12 -354 21 -527 57 -38 8 -82 17 -97 20 -34 6 -43 9 -199 58 -83 26 -129 45
-133 56 -21 53 -105 328 -110 360 -4 20 -12 66 -20 102 -7 36 -15 108 -17 160
l-3 95 55 7 c69 8 259 2 370 -12z m-790 -555 c45 -24 118 -106 149 -169 35
-72 70 -211 78 -312 5 -67 4 -75 -27 -133 -65 -121 -216 -233 -394 -291 -117
-38 -249 -24 -377 41 -32 16 -63 29 -68 29 -5 0 -11 -16 -13 -36 -3 -28 5 -55
35 -115 48 -96 59 -176 33 -244 -10 -25 -22 -45 -27 -45 -9 0 -400 137 -404
142 -7 9 -65 228 -65 246 0 37 104 109 200 138 47 14 114 35 150 46 68 21 283
129 360 181 114 76 210 205 225 302 22 146 37 230 42 238 7 11 68 0 103 -18z
m4034 -11 c-8 -19 -17 -70 -21 -113 -12 -159 48 -260 307 -516 220 -217 238
-245 183 -297 -110 -102 -374 -128 -525 -52 -146 74 -231 230 -244 449 -10
150 41 335 120 443 44 59 92 96 144 112 49 15 52 13 36 -26z m-5630 -106 c54
-106 60 -193 22 -311 -39 -118 -110 -232 -169 -273 -176 -121 -369 -99 -549
64 -55 50 -96 129 -114 218 -16 86 -14 104 14 104 52 0 563 189 691 255 25 13
51 23 56 21 6 -1 28 -37 49 -78z m7214 33 c15 -11 135 -81 267 -156 239 -137
415 -245 415 -255 0 -4 -21 -33 -48 -65 -54 -67 -183 -160 -280 -202 -59 -25
-68 -26 -118 -15 -31 6 -76 21 -101 34 -135 67 -265 322 -247 483 8 71 26 125
54 166 25 34 24 34 58 10z m-8306 -873 c-7 -7 -12 -23 -12 -37 0 -33 38 -109
61 -124 11 -7 19 -20 19 -29 0 -11 7 -18 18 -18 30 0 162 -68 263 -135 119
-80 241 -205 291 -301 54 -103 71 -171 66 -272 -3 -76 -7 -92 -32 -130 l-29
-43 -86 84 c-125 122 -253 201 -436 268 -79 28 -104 33 -205 35 l-115 3 -37
39 c-42 46 -72 131 -109 314 l-23 117 47 41 c80 71 167 131 241 166 73 35 98
42 78 22z m9405 -24 c61 -31 147 -90 253 -175 40 -33 38 -41 -42 -160 -78
-116 -171 -208 -274 -269 -46 -27 -103 -65 -126 -84 -24 -20 -85 -56 -135 -80
-130 -63 -227 -131 -315 -222 l-76 -77 -54 84 c-70 107 -78 133 -78 238 0 68
6 99 24 144 39 93 73 134 180 211 140 100 178 121 276 150 94 27 226 83 217
92 -3 3 -65 -8 -138 -26 -149 -36 -174 -32 -118 21 43 40 193 147 239 171 52
26 90 22 167 -18z m-7590 -298 c159 -52 342 -111 408 -132 66 -20 128 -44 139
-53 10 -9 37 -54 60 -101 23 -47 65 -119 92 -160 73 -108 168 -263 269 -440
84 -147 211 -360 287 -480 68 -108 242 -444 279 -538 41 -107 40 -108 58 28
29 209 32 284 21 409 -17 193 -61 382 -145 624 -18 53 -30 97 -26 97 9 0 164
-106 243 -167 44 -33 70 -65 111 -136 81 -139 256 -455 334 -607 39 -74 110
-207 157 -295 l87 -160 -6 140 c-9 210 -46 453 -131 854 -19 90 -33 166 -30
168 2 2 43 -24 90 -60 48 -35 134 -92 192 -128 58 -35 111 -68 119 -74 39 -28
110 -536 124 -895 9 -210 1 -823 -10 -835 -7 -7 -179 38 -231 59 -20 9 -35 25
-43 47 -7 19 -58 142 -112 274 -113 271 -208 468 -216 445 -3 -8 -21 -72 -41
-141 -39 -142 -166 -480 -220 -587 l-36 -72 -48 6 c-26 3 -78 10 -117 15 -80
11 -299 14 -338 4 -19 -5 -28 -3 -31 6 -101 333 -288 797 -442 1099 -90 179
-199 361 -301 508 -49 70 -104 152 -123 182 -19 30 -129 199 -245 375 -239
361 -344 532 -422 685 -49 97 -61 130 -48 130 3 0 134 -42 292 -94z m5606 27
c-60 -110 -344 -607 -434 -759 -46 -77 -115 -200 -154 -273 -38 -74 -111 -194
-160 -268 l-90 -135 -259 -124 c-142 -68 -260 -124 -263 -124 -3 0 -3 14 1 31
8 39 -9 197 -29 274 -21 78 -57 157 -94 204 -38 47 -116 90 -179 98 -43 5 -60
0 -133 -34 -182 -86 -365 -260 -492 -469 -68 -111 -124 -293 -134 -439 -5 -73
-2 -106 16 -175 25 -99 68 -196 112 -251 39 -49 138 -121 213 -154 134 -59
310 -10 507 141 60 46 202 194 194 202 -23 23 -353 106 -465 117 -89 8 -112
14 -105 25 10 17 267 166 395 230 379 190 999 455 1018 436 2 -3 -9 -42 -26
-88 -99 -274 -150 -770 -107 -1038 20 -122 79 -363 111 -450 43 -121 32 -119
-71 10 -70 87 -225 324 -322 493 -39 66 -40 67 -51 42 -31 -68 -156 -239 -227
-311 -141 -143 -326 -250 -502 -289 -253 -57 -429 -55 -583 6 -102 41 -227
126 -295 202 -66 72 -170 275 -205 397 -28 100 -46 429 -29 540 37 244 141
456 336 683 213 246 551 466 850 551 199 57 367 68 502 31 61 -16 139 -82 170
-145 55 -108 55 -322 1 -464 -20 -53 -3 -37 23 21 57 127 118 404 119 538 0
59 -16 156 -38 227 -3 9 6 27 21 42 33 33 228 164 355 238 93 55 518 276 532
277 4 1 -9 -29 -29 -66z m-7325 -826 c60 -39 94 -90 100 -146 4 -46 3 -48 -49
-95 l-53 -47 54 20 54 21 72 -35 c50 -24 84 -49 109 -79 94 -115 173 -304 195
-465 16 -119 -1 -241 -39 -276 -20 -17 -26 -12 -238 202 -242 243 -334 315
-522 410 -75 38 -116 64 -121 79 -12 30 10 128 54 244 29 75 45 103 77 133 23
20 49 37 58 37 9 0 34 7 56 15 60 23 144 15 193 -18z m9417 -121 c28 -13 58
-32 67 -42 16 -18 15 -22 -13 -63 -16 -24 -66 -83 -112 -130 -104 -109 -186
-204 -266 -311 -35 -47 -110 -132 -166 -190 -92 -95 -195 -231 -195 -259 0
-16 -7 -14 -56 19 -142 98 -193 314 -112 474 35 69 118 166 195 227 68 54 239
149 268 149 8 0 17 5 21 11 5 9 -1 10 -22 5 l-29 -8 25 27 c30 32 126 80 200
99 81 22 138 19 195 -8z m-7400 -266 l29 -30 -33 -68 c-92 -186 -301 -436
-521 -622 l-64 -55 27 45 c50 81 136 261 158 329 20 62 26 70 93 121 106 81
208 187 241 252 17 32 33 58 36 58 3 0 18 -14 34 -30z m29 -207 c-13 -73 -66
-192 -116 -265 -132 -190 -414 -408 -597 -462 -73 -21 -59 -7 85 89 299 199
490 391 570 572 25 55 53 103 61 103 2 0 1 -17 -3 -37z m-2243 -53 c126 -129
189 -282 195 -472 2 -95 4 -99 37 -140 66 -81 148 -227 167 -298 16 -60 14
-193 -5 -264 -19 -73 -90 -226 -104 -226 -6 0 -11 13 -11 29 0 137 -118 346
-301 536 l-106 110 -27 90 c-30 106 -35 200 -22 450 l9 170 41 46 c22 26 43
47 45 48 2 1 39 -35 82 -79z m7618 -11 c80 -65 90 -76 106 -127 30 -98 97
-234 171 -348 19 -29 19 -29 -26 6 -125 97 -440 438 -440 476 0 11 73 60 93
63 4 1 47 -31 96 -70z m-6031 -985 c268 -100 544 -273 749 -468 107 -101 153
-180 161 -272 7 -84 -13 -137 -70 -189 -88 -79 -227 -117 -433 -119 -120 -1
-160 3 -280 29 l-140 29 129 18 c145 21 207 45 279 108 61 54 81 114 75 219
-8 130 -87 271 -229 406 -98 93 -236 202 -307 242 -74 43 -54 42 66 -3z m6403
-9 c-92 -57 -285 -219 -350 -294 -104 -120 -159 -232 -168 -341 -9 -112 23
-184 111 -251 58 -44 96 -56 254 -79 64 -10 114 -18 109 -19 -4 -1 -76 -15
-160 -32 -138 -28 -164 -30 -277 -25 -198 9 -354 59 -425 137 -101 112 -58
292 106 443 215 199 505 380 748 467 58 21 110 38 116 38 5 1 -24 -19 -64 -44z"/>
</g>
</svg>
