 <svg  version="1.0" xmlns="http://www.w3.org/2000/svg"  width="300.000000pt" height="273.000000pt" viewBox="0 0 300.000000 273.000000"  preserveAspectRatio="xMidYMid meet">  <g transform="translate(0.000000,273.000000) scale(0.050000,-0.050000)" fill="#102461" stroke="none"> <path d="M0 2730 l0 -2730 3000 0 3000 0 0 2730 0 2730 -3000 0 -3000 0 0 -2730z m3353 2619 c482 -146 834 -420 1015 -792 116 -237 107 -428 -47 -987 -33 -120 -36 -159 -18 -199 18 -39 17 -78 -2 -163 -52 -235 9 -360 210 -434 162 -59 290 -165 259 -214 -9 -14 -40 8 -82 57 -40 46 -100 90 -143 104 -298 95 -418 287 -345 548 20 71 20 103 1 149 -20 48 -17 83 16 205 53 191 123 571 129 694 20 467 -740 1055 -1356 1050 -538 -5 -1114 -390 -1303 -871 l-52 -133 44 -257 c24 -141 66 -343 94 -450 41 -157 46 -201 26 -237 -18 -34 -18 -71 1 -161 59 -278 -46 -442 -345 -537 -43 -14 -103 -58 -143 -104 -76 -89 -120 -72 -53 22 42 58 61 69 259 148 176 70 237 212 184 425 -17 67 -18 110 -2 157 17 52 12 98 -28 246 -26 100 -68 300 -93 444 l-44 263 44 114 c164 430 545 757 1061 911 294 88 428 88 713 2z m-1053 -405 c-130 -101 -221 -194 -296 -302 -41 -60 -87 -113 -102 -118 -78 -26 224 330 352 414 114 76 141 79 46 6z m126 -229 c-142 -151 -239 -305 -318 -508 -59 -150 -67 -164 -56 -87 31 224 135 408 330 589 152 140 174 143 44 6z m1024 -167 c-16 -54 -53 -125 -81 -158 -51 -59 -51 -58 7 50 32 61 65 136 72 167 8 32 18 54 23 49 5 -5 -4 -53 -21 -108z m429 -351 c67 -98 74 -116 33 -77 -60 54 -184 295 -202 390 -6 33 10 5 36 -63 26 -67 86 -180 133 -250z m-2098 -274 c22 -115 37 -212 32 -217 -22 -22 -114 484 -110 604 1 33 10 6 19 -60 10 -66 36 -213 59 -327z m147 -163 c38 -180 42 -249 10 -195 -40 69 -78 342 -75 542 l3 203 15 -200 c9 -110 30 -267 47 -350z m1922 200 c-32 -62 -32 -69 18 -180 75 -165 64 -174 -17 -13 l-69 137 44 66 c54 83 69 76 24 -10z m-1179 -450 c139 -68 132 -83 -12 -28 -60 23 -167 54 -239 70 l-130 27 135 -7 c95 -5 168 -24 246 -62z m939 48 c-86 -14 -170 -40 -360 -108 -30 -11 -28 -6 10 22 78 58 240 107 350 105 l100 -2 -100 -17z m-1140 -206 c226 -40 391 -115 376 -171 -10 -38 -5 -42 41 -30 75 19 133 19 210 1 62 -15 66 -13 54 25 -27 83 335 203 614 203 l120 0 -13 -85 c-7 -47 -27 -136 -45 -198 l-31 -112 -123 -32 c-345 -91 -400 -86 -454 40 -84 194 -380 194 -444 0 -33 -98 -108 -114 -325 -73 -238 45 -243 48 -289 220 -75 280 -74 280 309 212z m-540 -249 c-16 -15 -65 113 -76 197 -11 80 -7 75 35 -50 26 -77 44 -143 41 -147z m27 -70 c220 -234 -57 -553 -365 -422 -34 14 -36 10 -23 -33 39 -120 38 -205 -2 -189 -20 8 -75 29 -121 45 -150 52 -141 198 14 239 202 52 366 190 387 325 15 94 46 104 110 35z m2151 -10 c-16 -77 31 -163 164 -297 122 -124 130 -150 57 -183 -242 -110 -452 139 -342 403 51 123 141 180 121 77z m-3051 -42 c79 -226 -196 -419 -365 -256 -131 125 -118 154 104 238 239 90 235 90 261 18z m4158 -89 c147 -88 147 -91 50 -171 -179 -148 -435 74 -324 281 24 45 -10 59 274 -110z m-4658 19 c-17 -38 -15 -79 10 -179 18 -72 33 -134 33 -139 0 -5 -37 0 -82 10 -121 27 -278 -88 -278 -204 0 -197 50 -316 118 -280 32 17 40 12 51 -34 10 -37 6 -57 -12 -62 -124 -39 -272 -326 -199 -385 41 -33 43 -51 41 -274 l-3 -239 -68 21 -68 21 0 198 c0 178 -4 202 -42 233 l-43 34 55 109 c30 60 81 137 113 171 57 59 56 194 -1 159 -24 -15 -60 91 -75 225 l-13 108 115 109 c63 60 140 114 171 120 55 11 56 14 53 144 l-3 132 70 24 c39 14 72 25 75 26 2 0 -6 -21 -18 -48z m5019 -41 c13 -29 14 -73 3 -123 -25 -105 -26 -101 38 -113 104 -21 283 -206 283 -292 0 -113 -55 -282 -88 -270 -65 25 -52 -99 18 -172 38 -38 87 -114 111 -167 l43 -97 -43 -45 c-23 -24 -40 -62 -38 -83 15 -168 -5 -348 -39 -348 -100 0 -299 -178 -364 -326 -96 -216 -688 -494 -1160 -544 -183 -19 -970 51 -1142 101 -17 5 -71 -21 -119 -59 l-87 -69 -78 70 c-60 55 -89 68 -127 58 -278 -70 -974 -123 -1191 -92 -503 74 -997 320 -1106 550 -30 63 -92 145 -146 193 -74 65 -81 77 -34 52 85 -43 189 -157 207 -226 29 -108 174 -42 237 108 l28 68 134 -13 c316 -31 525 -177 524 -365 -1 -96 -24 -110 -203 -124 l-167 -12 178 -46 c342 -88 1201 -62 1556 48 21 6 64 -18 115 -63 l81 -74 77 70 76 69 219 -35 c541 -87 1052 -98 1342 -27 187 46 192 61 25 73 -161 11 -178 25 -179 143 -1 206 537 467 676 328 19 -19 24 -11 24 33 0 40 23 79 77 131 56 53 84 101 101 174 32 129 179 288 221 237 55 -66 -44 -288 -157 -353 -80 -46 -127 -160 -119 -288 l7 -106 -60 40 -60 40 65 -62 c74 -70 121 -79 137 -27 30 97 79 162 178 234 l110 80 0 236 c0 186 6 239 28 247 95 37 -56 347 -191 392 -11 4 -14 30 -6 61 11 47 19 51 53 33 61 -33 116 101 116 279 0 110 -170 230 -288 203 -71 -16 -75 -14 -65 27 46 181 54 253 35 290 -20 37 -17 38 46 18 38 -11 77 -41 88 -65z m-4486 -131 c-9 -39 -21 -56 -33 -44 -12 12 -10 39 5 72 31 68 46 54 28 -28z m3857 -43 c-17 -29 -46 23 -47 84 l0 50 30 -57 c16 -31 24 -66 17 -77z m-4497 -161 c-13 -36 29 -83 110 -124 175 -89 280 -219 280 -349 0 -83 -34 -95 -97 -35 -74 71 -259 153 -346 153 -142 0 -182 227 -56 318 91 66 123 77 109 37z m5195 -40 c80 -57 89 -71 71 -105 -49 -91 -184 -203 -342 -282 -35 -18 -89 -56 -121 -85 l-56 -53 -39 47 c-107 132 26 340 257 402 103 27 113 51 15 32 -89 -16 -88 -5 5 58 94 65 99 64 210 -14z m-4138 -138 c112 -35 217 -77 235 -95 38 -39 410 -664 494 -832 48 -95 64 -113 75 -84 23 59 -5 396 -41 500 -74 207 88 79 231 -183 58 -106 136 -247 174 -313 l68 -120 -12 136 c-7 74 -29 216 -49 315 l-37 181 42 -31 c24 -16 75 -49 115 -73 76 -44 118 -175 118 -366 0 -45 8 -69 20 -62 11 7 20 28 20 48 0 205 358 554 649 632 252 69 369 13 373 -177 l2 -103 29 90 c17 53 26 138 22 207 -8 117 -7 118 68 173 84 61 397 228 406 217 3 -4 -95 -182 -218 -397 l-224 -390 -139 -74 c-169 -91 -168 -91 -168 -11 -2 249 -173 324 -362 158 -384 -339 -194 -936 214 -672 165 108 162 139 -18 173 -74 14 -134 32 -134 40 0 35 709 374 733 350 4 -4 -5 -61 -21 -126 -61 -251 -53 -516 22 -724 26 -70 -62 30 -144 165 -94 155 -86 152 -156 42 -255 -404 -843 -318 -933 136 -14 68 -17 48 -19 -112 -2 -209 -6 -215 -108 -177 -37 14 -69 68 -135 224 -48 113 -90 197 -94 187 -4 -11 -40 -109 -81 -219 -41 -109 -81 -197 -89 -195 -8 3 -76 5 -150 5 l-135 0 -58 165 c-103 294 -203 484 -477 908 -272 421 -347 547 -323 547 7 0 104 -28 215 -63z m-990 -429 c32 -22 44 -47 38 -77 -6 -34 6 -50 51 -70 80 -36 154 -196 154 -336 0 -132 -6 -131 -151 17 -65 67 -166 149 -224 182 -134 76 -136 81 -95 189 46 121 136 158 227 95z m5156 -78 c4 -11 -79 -118 -183 -237 -105 -120 -198 -230 -206 -246 -38 -67 -124 37 -124 149 0 178 466 481 513 334z m-4083 -190 c-39 -76 -226 -300 -250 -300 -37 0 70 185 160 278 99 102 136 111 90 22z m-1158 -120 c30 -45 57 -120 63 -175 7 -57 31 -121 60 -159 60 -79 78 -197 45 -296 l-25 -75 -49 97 c-27 54 -87 143 -133 197 -81 97 -83 105 -90 266 -10 235 36 287 129 145z m1188 53 c0 -87 -237 -326 -360 -363 -30 -9 -3 20 70 74 126 93 220 193 256 270 23 52 34 58 34 19z m2934 -18 c51 -56 133 -215 110 -215 -15 0 -90 76 -172 174 -64 77 -6 116 62 41z m99 -617 c-230 -206 -233 -437 -5 -438 47 -1 55 -5 32 -20 -128 -83 -440 7 -440 127 0 118 373 429 519 433 5 0 -43 -46 -106 -102z m-3267 30 c334 -167 469 -385 294 -473 -77 -38 -309 -48 -360 -15 -24 16 -21 19 16 20 238 1 244 234 10 439 -107 95 -101 99 40 29z"/> </g> </svg> 